<svg width="1100" height="760" viewBox="0 0 1100 760" fill="none" xmlns="http://www.w3.org/2000/svg">
<rect width="1100" height="760" rx="48" fill="#08101D"/>
<circle cx="230" cy="180" r="170" fill="#72D7FF" fill-opacity="0.15"/>
<circle cx="860" cy="190" r="190" fill="#8E7DFF" fill-opacity="0.18"/>
<circle cx="770" cy="560" r="190" fill="#2DE8BF" fill-opacity="0.12"/>
<rect x="88" y="112" width="924" height="538" rx="34" fill="#0B1628" stroke="rgba(255,255,255,0.1)"/>
<rect x="128" y="154" width="300" height="454" rx="28" fill="url(#g1)" fill-opacity="0.12" stroke="rgba(255,255,255,0.08)"/>
<rect x="470" y="154" width="502" height="112" rx="26" fill="url(#g2)" fill-opacity="0.15" stroke="rgba(255,255,255,0.08)"/>
<rect x="470" y="290" width="156" height="146" rx="24" fill="#12233F" stroke="rgba(255,255,255,0.08)"/>
<rect x="644" y="290" width="156" height="146" rx="24" fill="#111F38" stroke="rgba(255,255,255,0.08)"/>
<rect x="818" y="290" width="154" height="146" rx="24" fill="#10243A" stroke="rgba(255,255,255,0.08)"/>
<rect x="470" y="460" width="502" height="148" rx="26" fill="#0F1C31" stroke="rgba(255,255,255,0.08)"/>
<circle cx="278" cy="388" r="106" fill="url(#g3)"/>
<path d="M192 392C232 322 324 301 395 340" stroke="#F5FBFF" stroke-width="14" stroke-linecap="round"/>
<path d="M180 430C228 473 300 495 376 478" stroke="#BEEFFF" stroke-width="12" stroke-linecap="round"/>
<rect x="510" y="188" width="188" height="18" rx="9" fill="#F3F8FF" fill-opacity="0.88"/>
<rect x="510" y="220" width="248" height="14" rx="7" fill="#A9B7D6" fill-opacity="0.55"/>
<rect x="490" y="478" width="174" height="16" rx="8" fill="#F3F8FF" fill-opacity="0.9"/>
<rect x="490" y="508" width="258" height="12" rx="6" fill="#9FB4DA" fill-opacity="0.55"/>
<rect x="490" y="550" width="112" height="34" rx="17" fill="url(#g4)"/>
<defs>
<linearGradient id="g1" x1="128" y1="154" x2="428" y2="608" gradientUnits="userSpaceOnUse">
<stop stop-color="#72D7FF"/>
<stop offset="1" stop-color="#8E7DFF"/>
</linearGradient>
<linearGradient id="g2" x1="470" y1="154" x2="972" y2="266" gradientUnits="userSpaceOnUse">
<stop stop-color="#72D7FF"/>
<stop offset="1" stop-color="#2DE8BF"/>
</linearGradient>
<linearGradient id="g3" x1="172" y1="282" x2="384" y2="494" gradientUnits="userSpaceOnUse">
<stop stop-color="#72D7FF"/>
<stop offset="1" stop-color="#8E7DFF"/>
</linearGradient>
<linearGradient id="g4" x1="490" y1="550" x2="602" y2="584" gradientUnits="userSpaceOnUse">
<stop stop-color="#72D7FF"/>
<stop offset="1" stop-color="#8E7DFF"/>
</linearGradient>
</defs>
</svg>