<svg width="260" height="220" viewBox="0 0 260 220" fill="none" xmlns="http://www.w3.org/2000/svg">
<circle cx="44" cy="52" r="12" fill="#FFD84D"/>
<circle cx="192" cy="40" r="10" fill="#1EC8FF"/>
<circle cx="224" cy="164" r="14" fill="#7C4DFF"/>
<path d="M112 24l8 16 18 2-13 12 3 18-16-8-16 8 3-18-13-12 18-2 8-16z" fill="#FFD84D"/>
<path d="M60 132l6 12 14 2-10 9 2 14-12-6-12 6 2-14-10-9 14-2 6-12z" fill="#9BE6A9"/>
<path d="M168 108l6 12 14 2-10 9 2 14-12-6-12 6 2-14-10-9 14-2 6-12z" fill="#8CE1FF"/>
</svg>