<svg width="700" height="520" viewBox="0 0 700 520" fill="none" xmlns="http://www.w3.org/2000/svg">
  <defs>
    <linearGradient id="bg" x1="0" y1="0" x2="1" y2="1">
      <stop stop-color="#7C4DFF"/>
      <stop offset="1" stop-color="#16C7FF"/>
    </linearGradient>
  </defs>
  <rect width="700" height="520" rx="36" fill="#F7F9FC"/>
  <circle cx="580" cy="98" r="58" fill="#FFD84D" fill-opacity="0.35"/>
  <circle cx="118" cy="88" r="38" fill="#16C7FF" fill-opacity="0.22"/>
  <rect x="110" y="118" width="480" height="290" rx="28" fill="url(#bg)"/>
  <rect x="138" y="148" width="190" height="222" rx="24" fill="white" fill-opacity="0.97"/>
  <rect x="160" y="176" width="146" height="16" rx="8" fill="#E7ECF3"/>
  <rect x="160" y="206" width="112" height="14" rx="7" fill="#D9F3FF"/>
  <rect x="160" y="236" width="126" height="46" rx="16" fill="#F4F0FF"/>
  <rect x="160" y="296" width="100" height="46" rx="16" fill="#FFF1D6"/>
  <circle cx="450" cy="220" r="60" fill="white" fill-opacity="0.95"/>
  <circle cx="450" cy="205" r="26" fill="#FFCF99"/>
  <rect x="408" y="240" width="84" height="72" rx="22" fill="#B18BFF"/>
  <circle cx="530" cy="258" r="44" fill="#FFCF99"/>
  <rect x="500" y="292" width="62" height="50" rx="18" fill="#FFD84D"/>
  <circle cx="414" cy="354" r="16" fill="#FFD84D"/>
  <circle cx="444" cy="354" r="16" fill="#8CE1FF"/>
  <circle cx="474" cy="354" r="16" fill="#9BE6A9"/>
  <text x="110" y="454" font-size="30" font-family="Arial, sans-serif" font-weight="800" fill="#101828">Семейный режим без ссор</text>
  <text x="110" y="486" font-size="18" font-family="Arial, sans-serif" fill="#475467">Задачи, награды и прогресс ребёнка — в одном приложении.</text>
</svg>