<svg width="700" height="520" viewBox="0 0 700 520" fill="none" xmlns="http://www.w3.org/2000/svg">
<rect width="700" height="520" rx="36" fill="#F4F7FF"/>
<defs><linearGradient id="tg" x1="0" y1="0" x2="1" y2="1"><stop stop-color="#101828"/><stop offset="1" stop-color="#7C4DFF"/></linearGradient></defs>
<rect x="114" y="82" width="472" height="290" rx="30" fill="url(#tg)"/>
<rect x="144" y="116" width="412" height="226" rx="24" fill="#182233"/>
<rect x="174" y="146" width="160" height="150" rx="20" fill="#223149"/>
<rect x="352" y="146" width="174" height="24" rx="12" fill="#2D4366"/>
<rect x="352" y="184" width="134" height="18" rx="9" fill="#A78BFA"/>
<rect x="352" y="214" width="158" height="18" rx="9" fill="#60A5FA"/>
<rect x="352" y="244" width="118" height="18" rx="9" fill="#34D399"/>
<rect x="352" y="278" width="96" height="32" rx="16" fill="#FFD84D"/>
<circle cx="254" cy="194" r="38" fill="#FFCF99"/>
<rect x="218" y="234" width="72" height="52" rx="20" fill="#7C4DFF"/>
<text x="104" y="432" font-size="30" font-family="Arial, sans-serif" font-weight="800" fill="#101828">Трекер, который не выглядит детским</text>
<text x="104" y="464" font-size="18" font-family="Arial, sans-serif" fill="#475467">Больше самостоятельности, челленджей и прогресса без скучных таблиц.</text>
</svg>